# xmcd
#
# Track frame offsets:
#	150
#	15171
#	34150
#	52841
#	70354
#	83855
#	99785
#	119837
#	136319
#	155730
#	175335
#	197865
#
# Disc length: 2865 seconds
#
# Revision: 2
# Processed by: cddbd v1.5.2PL0 Copyright (c) Steve Scherf et al.
# Submitted via: audiograbber 1.83.01
#
DISCID=9d0b2f0c
DTITLE=CD Pool - Urban September 2010 CD2
DYEAR=2010
DGENRE=R&B
TTITLE0=Iyaz - So Big (Album Version)
TTITLE1=Labrinth - Let The Sunshine (A Star Remix)
TTITLE2=Kyla - Don't Play With My Heart (Kami K Remix)
TTITLE3=JP Tronik - Jungle Skank
TTITLE4=Paul E Paul - Girl In The Club
TTITLE5=Talay Riley - Humanoid
TTITLE6=Andriah - Dance (Pyper Remix)
TTITLE7=Nutty P Ft Alaye - Outta Space (New Mix)
TTITLE8=Richy Pitch Ft Yasmeen - Dey Suffer (No Intro)
TTITLE9=Seductive Souls Ft C Robert Walker - Love Don't Hurt At All (Album Vers
TTITLE9=ion)
TTITLE10=Dazz Band - You Are My Starship (Urbanstar Remix)
TTITLE11=Jodeci - Get On Up (Explicit Album Version)
EXTD=
EXTT0=
EXTT1=
EXTT2=
EXTT3=
EXTT4=
EXTT5=
EXTT6=
EXTT7=
EXTT8=
EXTT9=
EXTT10=
EXTT11=
PLAYORDER=
